<?xml version="1.0" encoding="utf-8"?>
<!-- Generator: Adobe Illustrator 22.1.0, SVG Export Plug-In . SVG Version: 6.00 Build 0)  -->
<svg version="1.1" id="Layer_1" xmlns="http://www.w3.org/2000/svg" xmlns:xlink="http://www.w3.org/1999/xlink" x="0px" y="0px"
	 viewBox="0 0 256 256" style="enable-background:new 0 0 256 256;" xml:space="preserve">
<style type="text/css">
	.st0{fill:#4671C6;}
	.st1{fill:#F9CFCF;}
	.st2{fill:#F9A7A7;}
	.st3{fill:#A4C9FF;}
	.st4{fill:#3762CC;}
	.st5{fill:#E0EBFC;}
	.st6{fill:#6BDDDD;}
	.st7{fill:#B9BEFC;}
	.st8{fill:#FFEA92;}
	.st9{fill:#EAA97D;}
	.st10{fill:#FFEA94;}
	.st11{fill:#FFE164;}
	.st12{fill:#FFDC85;}
	.st13{fill:#FFFFFF;}
	.st14{fill:#383838;}
</style>
<g>
	<g>
		<path class="st6" d="M244,38H12c-2.209,0-4,1.791-4,4v39.5c0,2.209,1.791,4,4,4h14c1.105,0,2,0.895,2,2v81c0,1.104-0.895,2-2,2H12
			c-2.209,0-4,1.791-4,4V214c0,2.209,1.791,4,4,4h232c2.209,0,4-1.791,4-4V42C248,39.791,246.209,38,244,38z M20,55.58
			c-3.082,0-5.58-2.498-5.58-5.58c0-3.082,2.498-5.58,5.58-5.58c3.082,0,5.58,2.498,5.58,5.58C25.58,53.082,23.082,55.58,20,55.58z
			 M20,211.58c-3.082,0-5.58-2.498-5.58-5.58c0-3.082,2.498-5.58,5.58-5.58c3.082,0,5.58,2.498,5.58,5.58
			C25.58,209.082,23.082,211.58,20,211.58z M236,211.58c-3.082,0-5.58-2.498-5.58-5.58c0-3.082,2.498-5.58,5.58-5.58
			s5.58,2.498,5.58,5.58C241.58,209.082,239.082,211.58,236,211.58z M236,55.58c-3.082,0-5.58-2.498-5.58-5.58
			c0-3.082,2.498-5.58,5.58-5.58s5.58,2.498,5.58,5.58C241.58,53.082,239.082,55.58,236,55.58z"/>
	</g>
	<g>
		<path class="st8" d="M162.021,51c-0.769-1.736-2.501-2.95-4.521-2.95c-2.734,0-4.95,2.216-4.95,4.95c0,2.734,2.216,4.95,4.95,4.95
			c2.021,0,3.752-1.214,4.521-2.95h35.41c2.206,0,4-1.794,4-4V38h-4v13H162.021z"/>
	</g>
	<g>
		<path class="st8" d="M204.55,83.885c0,2.734,2.216,4.95,4.95,4.95s4.95-2.216,4.95-4.95c0-2.021-1.214-3.752-2.95-4.521v-8.197
			h10.507c0.769,1.736,2.501,2.95,4.521,2.95c2.734,0,4.95-2.216,4.95-4.95s-2.216-4.95-4.95-4.95c-2.021,0-3.752,1.214-4.521,2.95
			H211.5V38h-4v41.364C205.764,80.133,204.55,81.864,204.55,83.885z"/>
	</g>
	<g>
		<path class="st8" d="M197.432,201h-35.41c-0.769-1.736-2.501-2.95-4.521-2.95c-2.734,0-4.95,2.216-4.95,4.95
			c0,2.734,2.216,4.95,4.95,4.95c2.021,0,3.752-1.214,4.521-2.95h35.41v13h4v-13C201.432,202.794,199.637,201,197.432,201z"/>
	</g>
	<g>
		<path class="st8" d="M214.45,172.115c0-2.734-2.216-4.95-4.95-4.95s-4.95,2.216-4.95,4.95c0,2.021,1.214,3.752,2.95,4.521V218h4
			v-41.364C213.236,175.867,214.45,174.136,214.45,172.115z"/>
	</g>
	<g>
		<path class="st8" d="M49.59,172.115c0-2.734-2.216-4.95-4.95-4.95s-4.95,2.216-4.95,4.95c0,2.021,1.214,3.752,2.95,4.521V218h4
			v-41.364C48.375,175.867,49.59,174.136,49.59,172.115z"/>
	</g>
	<g>
		<path class="st8" d="M76.961,204.742c2.206,0,4-1.794,4-4v-15.105c1.736-0.769,2.95-2.501,2.95-4.521
			c0-2.734-2.216-4.95-4.95-4.95c-2.734,0-4.95,2.216-4.95,4.95c0,2.021,1.214,3.752,2.95,4.521v15.105H56.19c-2.206,0-4,1.794-4,4
			V218h4v-13.258H76.961z"/>
	</g>
	<g>
		<path class="st3" d="M174.115,172.115h-72.23c-4.418,0-8-3.582-8-8v-72.23c0-4.418,3.582-8,8-8h72.23c4.418,0,8,3.582,8,8v72.23
			C182.115,168.533,178.533,172.115,174.115,172.115z"/>
	</g>
	<g>
		<path class="st0" d="M105.885,156.115v-56.23c0-2.209,1.791-4,4-4h56.23c2.209,0,4,1.791,4,4v56.23c0,2.209-1.791,4-4,4h-56.23
			C107.676,160.115,105.885,158.324,105.885,156.115z"/>
	</g>
	<g>
		<path class="st5" d="M94,69.167H38c-1.105,0-2-0.895-2-2v-16c0-1.105,0.895-2,2-2h56c1.105,0,2,0.895,2,2v16
			C96,68.271,95.105,69.167,94,69.167z"/>
	</g>
	<g>
		<path class="st4" d="M66,65.451c-1.104,0-2-0.896-2-2v-8.235c0-1.104,0.896-2,2-2s2,0.896,2,2v8.235
			C68,64.555,67.104,65.451,66,65.451z"/>
	</g>
	<g>
		<path class="st4" d="M55.714,65.451c-1.104,0-2-0.896-2-2v-8.235c0-1.104,0.896-2,2-2s2,0.896,2,2v8.235
			C57.714,64.555,56.819,65.451,55.714,65.451z"/>
	</g>
	<g>
		<path class="st4" d="M45.429,65.451c-1.104,0-2-0.896-2-2v-8.235c0-1.104,0.896-2,2-2s2,0.896,2,2v8.235
			C47.429,64.555,46.533,65.451,45.429,65.451z"/>
	</g>
	<g>
		<path class="st4" d="M76.286,65.451c-1.104,0-2-0.896-2-2v-8.235c0-1.104,0.896-2,2-2s2,0.896,2,2v8.235
			C78.286,64.555,77.39,65.451,76.286,65.451z"/>
	</g>
	<g>
		<path class="st4" d="M86.571,65.451c-1.104,0-2-0.896-2-2v-8.235c0-1.104,0.896-2,2-2s2,0.896,2,2v8.235
			C88.571,64.555,87.676,65.451,86.571,65.451z"/>
	</g>
	<g>
		<path class="st8" d="M44.568,118.224v-6c0-1.657,1.343-3,3-3H58.8c1.657,0,3,1.343,3,3v6H44.568z"/>
	</g>
	<g>
		
			<rect x="48.684" y="123.108" transform="matrix(-1.836970e-16 1 -1 -1.836970e-16 184.9085 78.5398)" class="st8" width="9" height="17.232"/>
	</g>
	<g>
		
			<rect x="48.684" y="114.108" transform="matrix(-1.836970e-16 1 -1 -1.836970e-16 175.9085 69.5398)" class="st8" width="9" height="17.232"/>
	</g>
	<g>
		<path class="st8" d="M44.568,142.224v-6H61.8v6c0,1.657-1.343,3-3,3H47.568C45.911,145.224,44.568,143.881,44.568,142.224z"/>
	</g>
	<g>
		<path class="st2" d="M234.333,108h-10.667c-1.105,0-2-0.895-2-2v-9.667c0-1.105,0.895-2,2-2h10.667c1.105,0,2,0.895,2,2V106
			C236.333,107.105,235.438,108,234.333,108z"/>
	</g>
	<g>
		<path class="st8" d="M234.333,161.667h-10.667c-1.105,0-2-0.895-2-2v-33c0-1.105,0.895-2,2-2h10.667c1.105,0,2,0.895,2,2v33
			C236.333,160.771,235.438,161.667,234.333,161.667z"/>
	</g>
	<g>
		<path class="st1" d="M93.885,147H81.568c-2.761,0-5,2.239-5,5s2.239,5,5,5h12.317V147z"/>
	</g>
	<g>
		<path class="st1" d="M93.885,123H81.568c-2.761,0-5,2.239-5,5s2.239,5,5,5h12.317V123z"/>
	</g>
	<g>
		<path class="st1" d="M93.885,99H81.568c-2.761,0-5,2.239-5,5s2.239,5,5,5h12.317V99z"/>
	</g>
	<g>
		<path class="st1" d="M109,172.115v12.317c0,2.761,2.239,5,5,5s5-2.239,5-5v-12.317H109z"/>
	</g>
	<g>
		<path class="st1" d="M133,172.115v12.317c0,2.761,2.239,5,5,5s5-2.239,5-5v-12.317H133z"/>
	</g>
	<g>
		<path class="st1" d="M157,172.115v12.317c0,2.761,2.239,5,5,5s5-2.239,5-5v-12.317H157z"/>
	</g>
	<g>
		<path class="st1" d="M194.432,147h-12.317v10h12.317c2.761,0,5-2.239,5-5S197.193,147,194.432,147z"/>
	</g>
	<g>
		<path class="st1" d="M194.432,123h-12.317v10h12.317c2.761,0,5-2.239,5-5S197.193,123,194.432,123z"/>
	</g>
	<g>
		<path class="st1" d="M194.432,99h-12.317v10h12.317c2.761,0,5-2.239,5-5S197.193,99,194.432,99z"/>
	</g>
	<g>
		<path class="st1" d="M167,83.885V71.568c0-2.761-2.239-5-5-5s-5,2.239-5,5v12.317H167z"/>
	</g>
	<g>
		<path class="st1" d="M143,83.885V71.568c0-2.761-2.239-5-5-5s-5,2.239-5,5v12.317H143z"/>
	</g>
	<g>
		<path class="st1" d="M119,83.885V71.568c0-2.761-2.239-5-5-5s-5,2.239-5,5v12.317H119z"/>
	</g>
	<g>
		<path class="st4" d="M244,220H12c-3.309,0-6-2.691-6-6v-39.5c0-3.309,2.691-6,6-6h14v-81H12c-3.309,0-6-2.691-6-6V42
			c0-3.309,2.691-6,6-6h232c3.309,0,6,2.691,6,6v172C250,217.309,247.309,220,244,220z M12,172.5c-1.103,0-2,0.897-2,2V214
			c0,1.103,0.897,2,2,2h232c1.103,0,2-0.897,2-2V42c0-1.103-0.897-2-2-2H12c-1.103,0-2,0.897-2,2v39.5c0,1.103,0.897,2,2,2h14
			c2.206,0,4,1.794,4,4v81c0,2.206-1.794,4-4,4H12z"/>
	</g>
	<g>
		<path class="st4" d="M20,57.581c-4.18,0-7.58-3.4-7.58-7.581c0-4.18,3.4-7.58,7.58-7.58s7.58,3.4,7.58,7.58
			C27.58,54.18,24.18,57.581,20,57.581z M20,46.42c-1.974,0-3.58,1.606-3.58,3.58s1.606,3.581,3.58,3.581s3.58-1.606,3.58-3.581
			S21.974,46.42,20,46.42z"/>
	</g>
	<g>
		<path class="st4" d="M20,213.581c-4.18,0-7.58-3.4-7.58-7.581c0-4.18,3.4-7.58,7.58-7.58s7.58,3.4,7.58,7.58
			C27.58,210.18,24.18,213.581,20,213.581z M20,202.42c-1.974,0-3.58,1.606-3.58,3.58s1.606,3.581,3.58,3.581s3.58-1.606,3.58-3.581
			S21.974,202.42,20,202.42z"/>
	</g>
	<g>
		<path class="st4" d="M236,213.581c-4.18,0-7.58-3.4-7.58-7.581c0-4.18,3.4-7.58,7.58-7.58s7.58,3.4,7.58,7.58
			C243.58,210.18,240.18,213.581,236,213.581z M236,202.42c-1.974,0-3.58,1.606-3.58,3.58s1.606,3.581,3.58,3.581
			s3.58-1.606,3.58-3.581S237.974,202.42,236,202.42z"/>
	</g>
	<g>
		<path class="st4" d="M236,57.581c-4.18,0-7.58-3.4-7.58-7.581c0-4.18,3.4-7.58,7.58-7.58s7.58,3.4,7.58,7.58
			C243.58,54.18,240.18,57.581,236,57.581z M236,46.42c-1.974,0-3.58,1.606-3.58,3.58s1.606,3.581,3.58,3.581s3.58-1.606,3.58-3.581
			S237.974,46.42,236,46.42z"/>
	</g>
	<g>
		<path class="st4" d="M61.8,120.224H44.568c-1.104,0-2-0.896-2-2v-6c0-2.757,2.243-5,5-5H58.8c2.757,0,5,2.243,5,5v6
			C63.8,119.329,62.905,120.224,61.8,120.224z M46.568,116.224H59.8v-4c0-0.551-0.449-1-1-1H47.568c-0.551,0-1,0.449-1,1V116.224z"
			/>
	</g>
	<g>
		<path class="st4" d="M61.8,138.224H44.568c-1.104,0-2-0.896-2-2v-9c0-1.104,0.896-2,2-2H61.8c1.104,0,2,0.896,2,2v9
			C63.8,137.329,62.905,138.224,61.8,138.224z M46.568,134.224H59.8v-5H46.568V134.224z"/>
	</g>
	<g>
		<path class="st4" d="M61.8,129.224H44.568c-1.104,0-2-0.896-2-2v-9c0-1.104,0.896-2,2-2H61.8c1.104,0,2,0.896,2,2v9
			C63.8,128.329,62.905,129.224,61.8,129.224z M46.568,125.224H59.8v-5H46.568V125.224z"/>
	</g>
	<g>
		<path class="st4" d="M58.8,147.224H47.568c-2.757,0-5-2.243-5-5v-6c0-1.104,0.896-2,2-2H61.8c1.104,0,2,0.896,2,2v6
			C63.8,144.981,61.557,147.224,58.8,147.224z M46.568,138.224v4c0,0.551,0.449,1,1,1H58.8c0.551,0,1-0.449,1-1v-4H46.568z"/>
	</g>
	<g>
		<path class="st4" d="M94,71.167H38c-2.206,0-4-1.794-4-4v-16c0-2.206,1.794-4,4-4h56c2.206,0,4,1.794,4,4v16
			C98,69.372,96.206,71.167,94,71.167z M38,51.167v16h56.002l-0.002-16H38z"/>
	</g>
	<g>
		<path class="st4" d="M174.115,174.115h-72.23c-5.514,0-10-4.486-10-10v-72.23c0-5.514,4.486-10,10-10h72.23
			c5.514,0,10,4.486,10,10v72.23C184.115,169.629,179.629,174.115,174.115,174.115z M101.885,85.885c-3.309,0-6,2.691-6,6v72.23
			c0,3.309,2.691,6,6,6h72.23c3.309,0,6-2.691,6-6v-72.23c0-3.309-2.691-6-6-6H101.885z"/>
	</g>
	<g>
		<path class="st4" d="M166.115,162.115h-56.23c-3.309,0-6-2.691-6-6v-56.23c0-3.309,2.691-6,6-6h56.23c3.309,0,6,2.691,6,6v56.23
			C172.115,159.424,169.424,162.115,166.115,162.115z M109.885,97.885c-1.103,0-2,0.897-2,2v56.23c0,1.103,0.897,2,2,2h56.23
			c1.103,0,2-0.897,2-2v-56.23c0-1.103-0.897-2-2-2H109.885z"/>
	</g>
	<g>
		<path class="st4" d="M93.885,159H81.568c-3.86,0-7-3.14-7-7s3.14-7,7-7h12.316c1.104,0,2,0.896,2,2v10
			C95.885,158.104,94.989,159,93.885,159z M81.568,149c-1.654,0-3,1.346-3,3s1.346,3,3,3h10.316v-6H81.568z"/>
	</g>
	<g>
		<path class="st4" d="M93.885,135H81.568c-3.86,0-7-3.14-7-7s3.14-7,7-7h12.316c1.104,0,2,0.896,2,2v10
			C95.885,134.104,94.989,135,93.885,135z M81.568,125c-1.654,0-3,1.346-3,3s1.346,3,3,3h10.316v-6H81.568z"/>
	</g>
	<g>
		<path class="st4" d="M93.885,111H81.568c-3.86,0-7-3.14-7-7s3.14-7,7-7h12.316c1.104,0,2,0.896,2,2v10
			C95.885,110.104,94.989,111,93.885,111z M81.568,101c-1.654,0-3,1.346-3,3s1.346,3,3,3h10.316v-6H81.568z"/>
	</g>
	<g>
		<path class="st4" d="M114,191.432c-3.86,0-7-3.14-7-7v-12.316c0-1.104,0.896-2,2-2h10c1.104,0,2,0.896,2,2v12.316
			C121,188.292,117.86,191.432,114,191.432z M111,174.115v10.316c0,1.654,1.346,3,3,3s3-1.346,3-3v-10.316H111z"/>
	</g>
	<g>
		<path class="st4" d="M138,191.432c-3.86,0-7-3.14-7-7v-12.316c0-1.104,0.896-2,2-2h10c1.104,0,2,0.896,2,2v12.316
			C145,188.292,141.86,191.432,138,191.432z M135,174.115v10.316c0,1.654,1.346,3,3,3s3-1.346,3-3v-10.316H135z"/>
	</g>
	<g>
		<path class="st4" d="M162,191.432c-3.86,0-7-3.14-7-7v-12.316c0-1.104,0.896-2,2-2h10c1.104,0,2,0.896,2,2v12.316
			C169,188.292,165.86,191.432,162,191.432z M159,174.115v10.316c0,1.654,1.346,3,3,3s3-1.346,3-3v-10.316H159z"/>
	</g>
	<g>
		<path class="st4" d="M194.432,159h-12.316c-1.104,0-2-0.896-2-2v-10c0-1.104,0.896-2,2-2h12.316c3.86,0,7,3.14,7,7
			S198.292,159,194.432,159z M184.115,155h10.316c1.654,0,3-1.346,3-3s-1.346-3-3-3h-10.316V155z"/>
	</g>
	<g>
		<path class="st4" d="M194.432,135h-12.316c-1.104,0-2-0.896-2-2v-10c0-1.104,0.896-2,2-2h12.316c3.86,0,7,3.14,7,7
			S198.292,135,194.432,135z M184.115,131h10.316c1.654,0,3-1.346,3-3s-1.346-3-3-3h-10.316V131z"/>
	</g>
	<g>
		<path class="st4" d="M194.432,111h-12.316c-1.104,0-2-0.896-2-2V99c0-1.104,0.896-2,2-2h12.316c3.86,0,7,3.14,7,7
			S198.292,111,194.432,111z M184.115,107h10.316c1.654,0,3-1.346,3-3s-1.346-3-3-3h-10.316V107z"/>
	</g>
	<g>
		<path class="st4" d="M167,85.885h-10c-1.104,0-2-0.896-2-2V71.568c0-3.86,3.14-7,7-7s7,3.14,7,7v12.317
			C169,84.99,168.104,85.885,167,85.885z M159,81.885h6V71.568c0-1.654-1.346-3-3-3s-3,1.346-3,3V81.885z"/>
	</g>
	<g>
		<path class="st4" d="M143,85.885h-10c-1.104,0-2-0.896-2-2V71.568c0-3.86,3.14-7,7-7s7,3.14,7,7v12.317
			C145,84.99,144.104,85.885,143,85.885z M135,81.885h6V71.568c0-1.654-1.346-3-3-3s-3,1.346-3,3V81.885z"/>
	</g>
	<g>
		<path class="st4" d="M119,85.885h-10c-1.104,0-2-0.896-2-2V71.568c0-3.86,3.14-7,7-7s7,3.14,7,7v12.317
			C121,84.99,120.104,85.885,119,85.885z M111,81.885h6V71.568c0-1.654-1.346-3-3-3s-3,1.346-3,3V81.885z"/>
	</g>
	<g>
		<path class="st4" d="M234.333,110h-10.667c-2.206,0-4-1.794-4-4v-9.667c0-2.206,1.794-4,4-4h10.667c2.206,0,4,1.794,4,4V106
			C238.333,108.206,236.539,110,234.333,110z M223.667,96.333V106h10.669l-0.002-9.667H223.667z"/>
	</g>
	<g>
		<path class="st4" d="M234.333,163.667h-10.667c-2.206,0-4-1.794-4-4v-33c0-2.206,1.794-4,4-4h10.667c2.206,0,4,1.794,4,4v33
			C238.333,161.872,236.539,163.667,234.333,163.667z M223.667,126.667v33h10.669l-0.002-33H223.667z"/>
	</g>
</g>
</svg>
